<?xml version="1.0" encoding="UTF-8"?>
<svg width="212px" height="200px" viewBox="0 0 212 200" version="1.1" xmlns="http://www.w3.org/2000/svg" xmlns:xlink="http://www.w3.org/1999/xlink">
    <!-- Generator: Sketch 48.2 (47327) - http://www.bohemiancoding.com/sketch -->
    <title>search</title>
    <desc>Created with Sketch.</desc>
    <defs></defs>
    <g id="Page-1" stroke="none" stroke-width="1" fill="none" fill-rule="evenodd">
        <g id="search" fill="#FFFFFF">
            <path d="M105.806452,121.290323 C118.900329,121.290323 133.261141,123.179336 148.889318,126.957419 C166.629411,131.365183 180.990223,137.242114 191.972185,144.588387 C205.066063,153.194022 211.612903,162.848979 211.612903,173.553548 L211.612903,200 L0,200 L0,173.553548 C0,162.848979 6.54684072,153.194022 19.6407186,144.588387 C30.6226806,137.242114 44.9834925,131.365183 62.7235851,126.957419 C78.3517619,123.179336 92.7125738,121.290323 105.806452,121.290323 Z" id="Path"></path>
            <path d="M158.009363,44.4956267 C155.691115,44.0821331 153.31891,43.8709677 150.913894,43.8709677 C140.248157,43.8709677 130.222593,48.0244701 122.68913,55.5617432 C115.155668,63.0990164 110.990734,73.1093381 110.96787,83.7484011 C110.949059,91.2622216 112.999826,98.45575 116.852856,104.680745 C113.288176,105.431218 109.606046,105.806452 105.806452,105.806452 C96.2455799,105.806452 87.4284637,103.430582 79.3548387,98.6787715 C71.2812137,93.926961 64.8542796,87.5385116 60.0738438,79.5132316 C55.2934079,71.4879516 52.9032258,62.7236326 52.9032258,53.2200116 C52.9032258,43.7163906 55.2934079,34.8464773 60.0738438,26.6100058 C64.8542796,18.3735342 71.2812137,11.8794906 79.3548387,7.12768012 C87.4284637,2.37586962 96.2455799,0 105.806452,0 C115.367323,0 124.184439,2.37586962 132.258065,7.12768012 C140.33169,11.8794906 146.758624,18.3735342 151.539059,26.6100058 C154.825541,32.2724628 156.982301,38.2343076 158.009363,44.4956267 Z" id="Combined-Shape"></path>
            <path d="M200.484574,122.681384 C203.1166,125.31004 203.12334,129.579921 200.491314,132.215316 C199.176986,133.533014 197.44814,134.193548 195.719293,134.193548 C193.997187,134.193548 192.27508,133.536384 190.957382,132.225427 L176.051556,117.346561 C175.165227,116.463603 174.605796,115.39192 174.312599,114.262946 C168.374534,118.499126 161.304124,120.814365 153.869746,120.814365 C144.473987,120.814365 135.64103,117.157837 129.005359,110.515427 C122.342728,103.866276 118.6862,95.0130979 118.709791,85.5903782 C118.730011,76.1811387 122.413499,67.3279611 129.076131,60.6619598 C135.738762,53.9959585 144.60542,50.3225806 154.03825,50.3225806 C163.292466,50.3225806 171.99736,53.8577856 178.612811,60.2845118 C178.973408,60.5338971 179.283455,60.8540539 179.51936,61.2247617 C185.780953,67.8031412 189.218425,76.3900832 189.218425,85.5094965 C189.218425,93.0112755 186.856005,100.132236 182.545684,106.087153 C183.651067,106.380349 184.7059,106.933041 185.575378,107.802519 L200.484574,122.681384 Z M153.587915,113.785692 C161.224496,113.785692 168.409489,110.803179 173.821823,105.390844 C179.220678,100.00547 182.193081,92.8440681 182.193081,85.2209665 C182.193081,77.5911248 179.224048,70.4263529 173.825193,65.0443488 C173.747682,64.9702073 173.67691,64.8859555 173.609509,64.8050738 C168.257835,59.625274 161.227866,56.7741935 153.753048,56.7741935 C146.119836,56.7741935 138.948324,59.7465966 133.55621,65.1420809 C128.160726,70.5375653 125.181582,77.7023371 125.161362,85.3153285 C125.144512,92.9316899 128.100064,100.086352 133.485438,105.458245 C138.853962,110.830139 145.991774,113.785692 153.587915,113.785692 Z" id="Fill-119"></path>
        </g>
    </g>
</svg>