<?xml version="1.0" encoding="UTF-8"?>
<svg width="172px" height="200px" viewBox="0 0 172 200" version="1.1" xmlns="http://www.w3.org/2000/svg" xmlns:xlink="http://www.w3.org/1999/xlink">
    <!-- Generator: Sketch 48.2 (47327) - http://www.bohemiancoding.com/sketch -->
    <title>phone</title>
    <desc>Created with Sketch.</desc>
    <defs></defs>
    <g id="Page-1" stroke="none" stroke-width="1" fill="none" fill-rule="evenodd">
        <g id="phone">
            <path d="M118.124632,29.0374039 C119.731089,29.0374039 121.313711,29.1421633 122.891566,29.2469227 L122.891566,20.1566629 C122.891566,9.0664508 113.901128,0.0476179139 102.856141,0.0476179139 L20.0354249,0 C8.98567116,0 0,8.99978572 0,20.0614271 L0,179.895717 C0,190.981167 8.98567116,200 20.0354249,200 L102.856141,199.957144 C113.901128,199.957144 122.891566,190.957358 122.891566,179.895717 L122.891566,141.353777 L113.357698,145.439394 L113.357698,179.024309 L9.5338686,179.024309 L9.5338686,20.9328349 L113.357698,20.9328349 L113.357698,29.2469227 C114.935553,29.1421633 116.513408,29.0374039 118.124632,29.0374039" id="Fill-51" fill="#FFFFFF"></path>
            <path d="M118.072289,38.5542169 C88.8422407,38.5542169 65.060241,58.7359386 65.060241,83.5419423 C65.060241,102.301542 78.5631745,118.756159 98.6382053,125.422952 L92.2765682,134.700149 C91.0759885,136.451554 91.1764354,138.78517 92.530077,140.422042 C93.458015,141.553058 94.8260062,142.168675 96.2274796,142.168675 C96.8588601,142.168675 97.499807,142.039825 98.1120548,141.777353 L133.694174,126.549196 C156.0747,120.717542 171.084337,103.475509 171.084337,83.5419423 C171.084337,58.7359386 147.302338,38.5542169 118.072289,38.5542169 Z" id="Fill-59" fill="#FFFFFF"></path>
            <path d="M80.5882193,91.5662651 L78.6585201,90.1058781 L80.5249505,86.6540542 L77.1084337,85.0277142 L77.8360253,82.63799 L81.5056174,83.4345647 L81.9168648,79.5180723 L84.3527147,79.5180723 L84.7639621,83.4677553 L88.4019198,82.63799 L89.1611457,85.0277142 L85.7446289,86.6540542 L87.6110594,90.1058781 L85.6813601,91.5662651 L83.1506069,88.6123004 L80.5882193,91.5662651 Z M95.0451468,91.5662651 L93.1154475,90.1058781 L94.981878,86.6540542 L91.5653612,85.0277142 L92.2929528,82.63799 L95.9625449,83.4345647 L96.3737922,79.5180723 L98.8096422,79.5180723 L99.2208896,83.4677553 L102.858847,82.63799 L103.618073,85.0277142 L100.201556,86.6540542 L102.067987,90.1058781 L100.138288,91.5662651 L97.6075344,88.6123004 L95.0451468,91.5662651 Z M109.502074,91.5662651 L107.572375,90.1058781 L109.438805,86.6540542 L106.022289,85.0277142 L106.74988,82.63799 L110.419472,83.4345647 L110.83072,79.5180723 L113.26657,79.5180723 L113.677817,83.4677553 L117.315775,82.63799 L118.075001,85.0277142 L114.658484,86.6540542 L116.524914,90.1058781 L114.595215,91.5662651 L112.064462,88.6123004 L109.502074,91.5662651 Z M123.959002,91.5662651 L122.029303,90.1058781 L123.895733,86.6540542 L120.479216,85.0277142 L121.206808,82.63799 L124.8764,83.4345647 L125.287647,79.5180723 L127.723497,79.5180723 L128.134745,83.4677553 L131.772702,82.63799 L132.531928,85.0277142 L129.115411,86.6540542 L130.981842,90.1058781 L129.052143,91.5662651 L126.521389,88.6123004 L123.959002,91.5662651 Z M138.415929,91.5662651 L136.48623,90.1058781 L138.35266,86.6540542 L134.936144,85.0277142 L135.663735,82.63799 L139.333327,83.4345647 L139.744575,79.5180723 L142.180425,79.5180723 L142.591672,83.4677553 L146.22963,82.63799 L146.988856,85.0277142 L143.572339,86.6540542 L145.438769,90.1058781 L143.50907,91.5662651 L140.978317,88.6123004 L138.415929,91.5662651 Z M152.872857,91.5662651 L150.943157,90.1058781 L152.809588,86.6540542 L149.393071,85.0277142 L150.120663,82.63799 L153.790255,83.4345647 L154.201502,79.5180723 L156.637352,79.5180723 L157.048599,83.4677553 L160.686557,82.63799 L161.445783,85.0277142 L158.029266,86.6540542 L159.895697,90.1058781 L157.965998,91.5662651 L155.435244,88.6123004 L152.872857,91.5662651 Z" id="******" fill="#214B96"></path>
        </g>
    </g>
</svg>